<svg id="Layer_1" data-name="Layer 1" xmlns="http://www.w3.org/2000/svg" viewBox="0 0 135.82 56.4"><title>A&amp;amp;D DiscoverPrecisionLogo-RGB</title><path d="M136.7,20.83H99.8v7.71h7.3V39.32L86.2,20.83h-44v7.71h4.06L26,53.67H21.15v7.71H47.5V53.67H42.68l3.6-4.46H61.17v4.46H56.3v7.71h26V53.67H77.38V30.36l26.36,23.31H99.8v7.71h36.9a20.28,20.28,0,0,0,0-40.55ZM61.17,41.51H52.49l8.68-10.74Zm78.47,7.17a6.1,6.1,0,0,1-6,5H123.32V28.54h10.34a6.09,6.09,0,0,1,6,5,40.71,40.71,0,0,1,0,15.14Z" transform="translate(-21.15 -20.83)" fill="#0066b2"/><path d="M21.24,77.09V66.17h3.22a5,5,0,0,1,2.57.64,4.39,4.39,0,0,1,1.74,1.83,5.82,5.82,0,0,1,.61,2.71v.55a5.78,5.78,0,0,1-.61,2.73A4.37,4.37,0,0,1,27,76.45a5.32,5.32,0,0,1-2.62.64Zm1.9-9.4v7.88h1.23a2.88,2.88,0,0,0,2.3-.93A4.11,4.11,0,0,0,27.48,72v-.6a4.22,4.22,0,0,0-.77-2.72,2.76,2.76,0,0,0-2.25-.94Z" transform="translate(-21.15 -20.83)" fill="#0066b2"/><path d="M31.64,66.86a.93.93,0,0,1,.27-.69,1,1,0,0,1,.76-.28,1,1,0,0,1,.76.28,1,1,0,0,1,0,1.38,1,1,0,0,1-.76.27,1,1,0,0,1-.76-.27A.93.93,0,0,1,31.64,66.86Zm1.94,10.23H31.75V69h1.83Z" transform="translate(-21.15 -20.83)" fill="#0066b2"/><path d="M40.65,74.88a.82.82,0,0,0-.41-.74,4.19,4.19,0,0,0-1.33-.45,6.89,6.89,0,0,1-1.55-.5A2.06,2.06,0,0,1,36,71.28a2.16,2.16,0,0,1,.88-1.76,3.5,3.5,0,0,1,2.25-.7,3.64,3.64,0,0,1,2.35.72,2.28,2.28,0,0,1,.9,1.87H40.56a1.15,1.15,0,0,0-.39-.88,1.52,1.52,0,0,0-1-.35,1.65,1.65,0,0,0-1,.28.89.89,0,0,0-.38.75.74.74,0,0,0,.36.65,5,5,0,0,0,1.42.47,6.39,6.39,0,0,1,1.69.56,2.5,2.5,0,0,1,.9.78,2,2,0,0,1,.3,1.11,2.12,2.12,0,0,1-.91,1.78,3.88,3.88,0,0,1-2.38.68,4.18,4.18,0,0,1-1.77-.36,2.94,2.94,0,0,1-1.22-1,2.38,2.38,0,0,1-.43-1.36H37.5a1.25,1.25,0,0,0,.48,1,1.92,1.92,0,0,0,1.2.35,1.85,1.85,0,0,0,1.09-.27A.86.86,0,0,0,40.65,74.88Z" transform="translate(-21.15 -20.83)" fill="#0066b2"/><path d="M47.9,75.78a1.63,1.63,0,0,0,1.13-.4,1.34,1.34,0,0,0,.48-1h1.72a2.6,2.6,0,0,1-.48,1.41,3,3,0,0,1-1.2,1,3.5,3.5,0,0,1-1.63.39,3.43,3.43,0,0,1-2.7-1.11,4.34,4.34,0,0,1-1-3V72.9a4.29,4.29,0,0,1,1-3,3.41,3.41,0,0,1,2.7-1.12,3.34,3.34,0,0,1,2.36.84,3,3,0,0,1,1,2.22H49.51A1.68,1.68,0,0,0,49,70.73a1.51,1.51,0,0,0-1.13-.45,1.63,1.63,0,0,0-1.37.64,3.33,3.33,0,0,0-.49,2v.29a3.31,3.31,0,0,0,.48,2A1.62,1.62,0,0,0,47.9,75.78Z" transform="translate(-21.15 -20.83)" fill="#0066b2"/><path d="M52.8,73a4.88,4.88,0,0,1,.47-2.15,3.58,3.58,0,0,1,1.33-1.47,3.78,3.78,0,0,1,2-.51,3.52,3.52,0,0,1,2.66,1.06,4.18,4.18,0,0,1,1.11,2.8v.43a4.85,4.85,0,0,1-.47,2.15,3.34,3.34,0,0,1-1.32,1.46,3.8,3.8,0,0,1-2,.52,3.55,3.55,0,0,1-2.75-1.15,4.37,4.37,0,0,1-1-3Zm1.82.16a3.29,3.29,0,0,0,.52,2,1.7,1.7,0,0,0,1.44.71A1.67,1.67,0,0,0,58,75.06,3.63,3.63,0,0,0,58.53,73,3.24,3.24,0,0,0,58,71a1.78,1.78,0,0,0-2.85,0A3.54,3.54,0,0,0,54.62,73.11Z" transform="translate(-21.15 -20.83)" fill="#0066b2"/><path d="M65.29,74.78,67,69h1.89l-2.82,8.12H64.49L61.66,69h1.89Z" transform="translate(-21.15 -20.83)" fill="#0066b2"/><path d="M74.15,77.24a3.77,3.77,0,0,1-2.81-1.1,3.92,3.92,0,0,1-1.08-2.9V73a4.91,4.91,0,0,1,.47-2.17,3.61,3.61,0,0,1,1.32-1.49,3.5,3.5,0,0,1,1.89-.53,3.17,3.17,0,0,1,2.56,1.06,4.47,4.47,0,0,1,.9,3v.73H72.1a2.48,2.48,0,0,0,.67,1.6,2.07,2.07,0,0,0,1.48.58,2.47,2.47,0,0,0,2-1l1,.94A3.29,3.29,0,0,1,76,76.83,4.1,4.1,0,0,1,74.15,77.24Zm-.22-7a1.54,1.54,0,0,0-1.21.53,2.75,2.75,0,0,0-.59,1.46H75.6v-.13a2.26,2.26,0,0,0-.48-1.39A1.54,1.54,0,0,0,73.93,70.28Z" transform="translate(-21.15 -20.83)" fill="#0066b2"/><path d="M83.62,70.64a4.52,4.52,0,0,0-.74-.06,1.66,1.66,0,0,0-1.69,1v5.55H79.37V69h1.74l0,.91A2,2,0,0,1,83,68.82a1.73,1.73,0,0,1,.65.11Z" transform="translate(-21.15 -20.83)" fill="#0066b2"/><path d="M91.76,73v4h-1.9V66.17H94a4.22,4.22,0,0,1,2.91,1A3.17,3.17,0,0,1,98,69.64a3.1,3.1,0,0,1-1,2.5,4.41,4.41,0,0,1-3,.9Zm0-1.53H94A2.25,2.25,0,0,0,95.59,71a1.78,1.78,0,0,0,.53-1.38,1.88,1.88,0,0,0-.54-1.41,2.11,2.11,0,0,0-1.49-.55H91.76Z" transform="translate(-21.15 -20.83)" fill="#0066b2"/><path d="M104.29,70.64a4.52,4.52,0,0,0-.74-.06,1.67,1.67,0,0,0-1.69,1v5.55H100V69h1.74l0,.91a2,2,0,0,1,1.83-1.06,1.73,1.73,0,0,1,.65.11Z" transform="translate(-21.15 -20.83)" fill="#0066b2"/><path d="M109.57,77.24a3.78,3.78,0,0,1-2.81-1.1,3.92,3.92,0,0,1-1.07-2.9V73a4.9,4.9,0,0,1,.46-2.17,3.68,3.68,0,0,1,1.32-1.49,3.55,3.55,0,0,1,1.89-.53,3.16,3.16,0,0,1,2.56,1.06,4.42,4.42,0,0,1,.91,3v.73h-5.31a2.48,2.48,0,0,0,.67,1.6,2.08,2.08,0,0,0,1.49.58,2.49,2.49,0,0,0,2-1l1,.94a3.29,3.29,0,0,1-1.3,1.12A4,4,0,0,1,109.57,77.24Zm-.22-7a1.54,1.54,0,0,0-1.21.53,2.75,2.75,0,0,0-.59,1.46H111v-.13a2.32,2.32,0,0,0-.49-1.39A1.54,1.54,0,0,0,109.35,70.28Z" transform="translate(-21.15 -20.83)" fill="#0066b2"/><path d="M118.13,75.78a1.63,1.63,0,0,0,1.13-.4,1.34,1.34,0,0,0,.48-1h1.72a2.67,2.67,0,0,1-.47,1.41,3.07,3.07,0,0,1-1.21,1,3.5,3.5,0,0,1-1.63.39,3.43,3.43,0,0,1-2.7-1.11,4.34,4.34,0,0,1-1-3V72.9a4.29,4.29,0,0,1,1-3,3.41,3.41,0,0,1,2.7-1.12,3.34,3.34,0,0,1,2.36.84,3,3,0,0,1,1,2.22h-1.72a1.68,1.68,0,0,0-.48-1.15,1.51,1.51,0,0,0-1.13-.45,1.63,1.63,0,0,0-1.37.64,3.26,3.26,0,0,0-.48,2v.29a3.31,3.31,0,0,0,.47,2A1.62,1.62,0,0,0,118.13,75.78Z" transform="translate(-21.15 -20.83)" fill="#0066b2"/><path d="M123.37,66.86a.93.93,0,0,1,.27-.69,1,1,0,0,1,.76-.28,1,1,0,0,1,.77.28,1,1,0,0,1,0,1.38,1,1,0,0,1-.77.27,1,1,0,0,1-.76-.27A.93.93,0,0,1,123.37,66.86Zm1.94,10.23h-1.82V69h1.82Z" transform="translate(-21.15 -20.83)" fill="#0066b2"/><path d="M132.38,74.88a.81.81,0,0,0-.4-.74,4.28,4.28,0,0,0-1.33-.45,6.72,6.72,0,0,1-1.55-.5,2.07,2.07,0,0,1-1.37-1.91,2.17,2.17,0,0,1,.89-1.76,3.5,3.5,0,0,1,2.25-.7,3.64,3.64,0,0,1,2.35.72,2.3,2.3,0,0,1,.89,1.87h-1.82a1.15,1.15,0,0,0-.39-.88,1.49,1.49,0,0,0-1-.35,1.65,1.65,0,0,0-1,.28.87.87,0,0,0-.38.75.75.75,0,0,0,.35.65,5.13,5.13,0,0,0,1.43.47,6.43,6.43,0,0,1,1.68.56,2.45,2.45,0,0,1,.91.78,2.08,2.08,0,0,1,.29,1.11,2.14,2.14,0,0,1-.9,1.78,3.9,3.9,0,0,1-2.38.68,4.19,4.19,0,0,1-1.78-.36,3,3,0,0,1-1.22-1,2.38,2.38,0,0,1-.43-1.36h1.77a1.26,1.26,0,0,0,.49,1,1.91,1.91,0,0,0,1.19.35A1.82,1.82,0,0,0,132,75.6.84.84,0,0,0,132.38,74.88Z" transform="translate(-21.15 -20.83)" fill="#0066b2"/><path d="M136.3,66.86a.93.93,0,0,1,.27-.69,1,1,0,0,1,.76-.28,1,1,0,0,1,.76.28,1,1,0,0,1,0,1.38,1,1,0,0,1-.76.27,1,1,0,0,1-.76-.27A.93.93,0,0,1,136.3,66.86Zm1.94,10.23h-1.83V69h1.83Z" transform="translate(-21.15 -20.83)" fill="#0066b2"/><path d="M140.42,73a4.75,4.75,0,0,1,.47-2.15,3.51,3.51,0,0,1,1.33-1.47,3.74,3.74,0,0,1,2-.51,3.53,3.53,0,0,1,2.67,1.06,4.13,4.13,0,0,1,1.1,2.8v.43a4.85,4.85,0,0,1-.46,2.15,3.46,3.46,0,0,1-1.32,1.46,3.8,3.8,0,0,1-2,.52,3.52,3.52,0,0,1-2.75-1.15,4.37,4.37,0,0,1-1-3Zm1.82.16a3.22,3.22,0,0,0,.52,2,1.68,1.68,0,0,0,1.44.71,1.66,1.66,0,0,0,1.43-.72,3.55,3.55,0,0,0,.52-2.11,3.24,3.24,0,0,0-.53-2,1.79,1.79,0,0,0-2.86,0A3.54,3.54,0,0,0,142.24,73.11Z" transform="translate(-21.15 -20.83)" fill="#0066b2"/><path d="M151.73,69l.06.94a2.89,2.89,0,0,1,2.36-1.09c1.69,0,2.55,1,2.58,2.9v5.37H154.9V71.83a1.7,1.7,0,0,0-.33-1.15,1.43,1.43,0,0,0-1.09-.37,1.77,1.77,0,0,0-1.64,1v5.78H150V69Z" transform="translate(-21.15 -20.83)" fill="#0066b2"/></svg>