<?xml version="1.0" encoding="UTF-8"?>
<svg xmlns="http://www.w3.org/2000/svg" xmlns:xlink="http://www.w3.org/1999/xlink" width="75pt" height="59pt" viewBox="0 0 75 59" version="1.1">
<g id="surface1">
<path style=" stroke:none;fill-rule:evenodd;fill:rgb(68.598938%,70.599365%,71.798706%);fill-opacity:1;" d="M 9.917969 31.414063 C 10.03125 31.878906 10.160156 32.230469 10.371094 32.625 C 10.773438 33.371094 11.246094 33.914063 11.882813 34.453125 C 13.648438 35.953125 16.273438 36.039063 18.207031 35.003906 C 18.171875 34.5625 18.007813 33.90625 17.910156 33.460938 C 17.628906 32.148438 17.171875 30.363281 16.699219 29.183594 C 15.199219 29.339844 11.203125 30.609375 9.917969 31.414063 "/>
<path style=" stroke:none;fill-rule:evenodd;fill:rgb(85.899353%,10.198975%,13.299561%);fill-opacity:1;" d="M 5.699219 32.664063 C 6.238281 32.664063 6.09375 32.726563 6.464844 32.511719 C 9.605469 30.699219 13.226563 29.339844 16.835938 28.648438 C 18.722656 28.289063 21.871094 27.941406 23.542969 28.777344 C 25.121094 29.570313 24.347656 31.027344 23.355469 31.960938 C 23.265625 32.046875 23.203125 32.097656 23.105469 32.199219 C 22.863281 32.457031 22.738281 32.425781 22.640625 32.679688 C 22.5625 32.878906 22.414063 33.195313 22.371094 33.378906 C 23.0625 33.121094 24.421875 32.164063 24.9375 31.589844 C 25.652344 30.792969 26.402344 29.632813 25.605469 28.59375 C 24.996094 27.804688 23.289063 27.59375 22.296875 27.558594 C 18.003906 27.417969 12.203125 29.199219 8.445313 31.078125 C 7.980469 31.308594 5.945313 32.386719 5.699219 32.664063 "/>
<path style=" stroke:none;fill-rule:evenodd;fill:rgb(85.899353%,10.198975%,13.299561%);fill-opacity:1;" d="M 9.613281 25.457031 C 9.695313 25.40625 9.800781 25.238281 9.863281 25.171875 C 10.261719 24.710938 10.183594 24.898438 10.21875 24.449219 C 10.300781 23.414063 10.640625 21.214844 12.085938 21.488281 C 13.894531 21.828125 15.714844 25.625 16.300781 26.980469 C 16.394531 27.203125 16.546875 27.527344 16.609375 27.75 L 17.039063 27.660156 C 16.980469 27.375 16.453125 26.125 16.308594 25.789063 C 15.753906 24.488281 14.882813 22.75 13.996094 21.628906 C 13.679688 21.230469 13.445313 20.933594 13.0625 20.609375 C 12.054688 19.757813 10.976563 19.433594 10.226563 20.859375 C 9.582031 22.089844 9.613281 23.941406 9.613281 25.457031 "/>
<path style=" stroke:none;fill-rule:evenodd;fill:rgb(68.598938%,70.599365%,71.798706%);fill-opacity:1;" d="M 8.472656 30.492188 C 8.617188 30.445313 9.246094 30.152344 9.332031 30.078125 C 9.359375 29.910156 9.351563 29.648438 9.371094 29.460938 C 9.492188 28.25 10.050781 26.929688 10.839844 26.09375 C 10.957031 25.96875 11.03125 25.867188 11.15625 25.746094 C 11.484375 25.425781 11.9375 25.089844 12.339844 24.847656 C 12.828125 24.550781 13.703125 24.175781 14.367188 24.09375 C 14.304688 23.96875 14.195313 23.835938 14.113281 23.71875 C 14.042969 23.617188 13.9375 23.445313 13.84375 23.347656 C 13.058594 23.441406 11.808594 24.128906 11.214844 24.597656 C 10.679688 25.019531 10.644531 25.070313 10.210938 25.542969 C 9.1875 26.65625 8.386719 28.511719 8.472656 30.492188 "/>
<path style=" stroke:none;fill-rule:evenodd;fill:rgb(68.598938%,70.599365%,71.798706%);fill-opacity:1;" d="M 22.347656 28.894531 C 22.328125 28.828125 22.339844 28.859375 22.324219 28.832031 L 21.4375 28.726563 C 21.554688 29.578125 21.667969 29.714844 21.574219 30.71875 C 21.46875 31.871094 21.050781 32.914063 20.378906 33.785156 C 20.164063 34.0625 19.59375 34.699219 19.300781 34.847656 L 19.464844 35.863281 C 19.699219 35.746094 20.363281 35.191406 20.539063 35 C 20.765625 34.746094 20.902344 34.609375 21.117188 34.316406 C 22.238281 32.777344 22.660156 30.996094 22.386719 29.085938 C 22.378906 29.046875 22.375 29 22.367188 28.957031 C 22.363281 28.941406 22.355469 28.90625 22.347656 28.894531 "/>
<path style=" stroke:none;fill-rule:evenodd;fill:rgb(68.598938%,70.599365%,71.798706%);fill-opacity:1;" d="M 12.203125 36.242188 C 12.214844 36.253906 12.210938 36.253906 12.242188 36.277344 L 12.359375 36.34375 C 13.832031 37.101563 15.34375 37.351563 17 36.984375 C 17.34375 36.910156 18.203125 36.644531 18.433594 36.472656 L 18.300781 35.535156 C 18.21875 35.539063 17.78125 35.769531 17.640625 35.824219 C 17.398438 35.917969 17.15625 35.996094 16.898438 36.058594 C 15.769531 36.328125 14.601563 36.265625 13.503906 35.890625 C 13.054688 35.734375 13.234375 35.714844 12.824219 35.914063 C 12.621094 36.011719 12.386719 36.128906 12.203125 36.242188 "/>
<path style=" stroke:none;fill-rule:evenodd;fill:rgb(85.899353%,10.198975%,13.299561%);fill-opacity:1;" d="M 18.832031 36.214844 C 18.941406 36.976563 18.976563 37.503906 19.050781 38.226563 C 19.066406 38.351563 19.21875 38.644531 19.335938 38.648438 C 19.410156 38.304688 19.183594 36.433594 19.125 35.996094 C 18.898438 34.265625 18.59375 32.871094 18.167969 31.203125 C 17.988281 30.496094 17.757813 29.664063 17.511719 29.003906 L 17.105469 29.074219 C 17.664063 30.792969 18.023438 31.878906 18.390625 33.699219 C 18.558594 34.53125 18.707031 35.363281 18.832031 36.214844 "/>
<path style=" stroke:none;fill-rule:evenodd;fill:rgb(68.598938%,70.599365%,71.798706%);fill-opacity:1;" d="M 19.078125 24.167969 C 18.863281 23.953125 17.839844 23.5625 17.453125 23.441406 C 16.890625 23.265625 16.03125 23.121094 15.394531 23.148438 C 15.464844 23.324219 15.644531 23.601563 15.742188 23.785156 C 15.796875 23.890625 15.792969 23.949219 15.925781 23.964844 C 16.367188 24.03125 16.683594 24.042969 17.121094 24.15625 C 17.5 24.253906 17.792969 24.363281 18.125 24.515625 C 18.292969 24.59375 18.460938 24.457031 18.613281 24.390625 C 18.730469 24.339844 19 24.234375 19.078125 24.167969 "/>
<path style=" stroke:none;fill-rule:evenodd;fill:rgb(85.899353%,10.198975%,13.299561%);fill-opacity:1;" d="M 31.910156 29.730469 L 30.21875 29.730469 L 29.976563 30.597656 L 28.457031 30.597656 L 30.273438 25.34375 L 31.902344 25.34375 L 33.710938 30.597656 L 32.152344 30.597656 Z M 31.59375 28.59375 L 31.066406 26.707031 L 30.539063 28.59375 Z M 34.09375 26.789063 L 35.34375 26.789063 L 35.34375 27.410156 C 35.53125 27.15625 35.71875 26.972656 35.910156 26.863281 C 36.097656 26.757813 36.332031 26.703125 36.605469 26.703125 C 36.976563 26.703125 37.265625 26.820313 37.472656 27.0625 C 37.683594 27.300781 37.789063 27.671875 37.789063 28.175781 L 37.789063 30.597656 L 36.441406 30.597656 L 36.441406 28.503906 C 36.441406 28.261719 36.398438 28.09375 36.320313 27.996094 C 36.238281 27.894531 36.125 27.84375 35.976563 27.84375 C 35.816406 27.84375 35.6875 27.914063 35.585938 28.046875 C 35.488281 28.179688 35.4375 28.417969 35.4375 28.765625 L 35.4375 30.597656 L 34.09375 30.597656 Z M 40.207031 25.628906 L 40.207031 26.789063 L 40.941406 26.789063 L 40.941406 27.859375 L 40.207031 27.859375 L 40.207031 29.207031 C 40.207031 29.367188 40.222656 29.476563 40.25 29.527344 C 40.292969 29.609375 40.371094 29.648438 40.480469 29.648438 C 40.582031 29.648438 40.71875 29.621094 40.898438 29.558594 L 40.996094 30.566406 C 40.664063 30.644531 40.355469 30.683594 40.066406 30.683594 C 39.734375 30.683594 39.488281 30.636719 39.332031 30.542969 C 39.171875 30.453125 39.054688 30.308594 38.980469 30.121094 C 38.90625 29.929688 38.867188 29.621094 38.867188 29.199219 L 38.867188 27.859375 L 38.375 27.859375 L 38.375 26.789063 L 38.867188 26.789063 L 38.867188 25.625 Z M 41.417969 28.703125 C 41.417969 28.121094 41.597656 27.644531 41.957031 27.265625 C 42.316406 26.890625 42.800781 26.703125 43.414063 26.703125 C 44.113281 26.703125 44.640625 26.921875 44.996094 27.363281 C 45.285156 27.722656 45.429688 28.160156 45.429688 28.679688 C 45.429688 29.269531 45.25 29.746094 44.894531 30.121094 C 44.539063 30.496094 44.046875 30.683594 43.417969 30.683594 C 42.855469 30.683594 42.402344 30.527344 42.054688 30.21875 C 41.632813 29.832031 41.417969 29.328125 41.417969 28.703125 Z M 42.761719 28.703125 C 42.761719 29.042969 42.824219 29.292969 42.949219 29.457031 C 43.074219 29.621094 43.230469 29.703125 43.421875 29.703125 C 43.613281 29.703125 43.773438 29.621094 43.894531 29.460938 C 44.019531 29.300781 44.082031 29.042969 44.082031 28.6875 C 44.082031 28.355469 44.019531 28.109375 43.894531 27.949219 C 43.769531 27.785156 43.617188 27.707031 43.429688 27.707031 C 43.238281 27.707031 43.078125 27.789063 42.949219 27.953125 C 42.824219 28.117188 42.761719 28.367188 42.761719 28.703125 Z M 46.074219 26.789063 L 47.324219 26.789063 L 47.324219 27.410156 C 47.511719 27.15625 47.699219 26.972656 47.890625 26.863281 C 48.082031 26.757813 48.3125 26.703125 48.585938 26.703125 C 48.957031 26.703125 49.242188 26.820313 49.453125 27.0625 C 49.664063 27.300781 49.769531 27.671875 49.769531 28.175781 L 49.769531 30.597656 L 48.417969 30.597656 L 48.417969 28.503906 C 48.417969 28.261719 48.378906 28.09375 48.296875 27.996094 C 48.21875 27.894531 48.105469 27.84375 47.957031 27.84375 C 47.796875 27.84375 47.667969 27.914063 47.566406 28.046875 C 47.46875 28.179688 47.414063 28.417969 47.414063 28.765625 L 47.414063 30.597656 L 46.074219 30.597656 Z M 52.898438 25.34375 L 55.378906 25.34375 C 55.917969 25.34375 56.324219 25.484375 56.59375 25.761719 C 56.859375 26.042969 56.996094 26.441406 56.996094 26.960938 C 56.996094 27.488281 56.847656 27.90625 56.554688 28.203125 C 56.261719 28.503906 55.8125 28.652344 55.210938 28.652344 L 54.394531 28.652344 L 54.394531 30.597656 L 52.898438 30.597656 Z M 54.394531 27.589844 L 54.761719 27.589844 C 55.050781 27.589844 55.253906 27.535156 55.371094 27.425781 C 55.488281 27.316406 55.546875 27.175781 55.546875 27.007813 C 55.546875 26.84375 55.496094 26.703125 55.394531 26.585938 C 55.292969 26.472656 55.101563 26.414063 54.820313 26.414063 L 54.394531 26.414063 Z M 58.792969 28.023438 L 57.515625 27.875 C 57.5625 27.628906 57.632813 27.4375 57.722656 27.296875 C 57.8125 27.15625 57.945313 27.039063 58.117188 26.933594 C 58.238281 26.859375 58.40625 26.800781 58.621094 26.761719 C 58.835938 26.722656 59.070313 26.703125 59.320313 26.703125 C 59.71875 26.703125 60.039063 26.726563 60.285156 26.773438 C 60.527344 26.824219 60.730469 26.925781 60.890625 27.082031 C 61.007813 27.1875 61.097656 27.34375 61.160156 27.539063 C 61.226563 27.734375 61.261719 27.921875 61.261719 28.101563 L 61.261719 29.785156 C 61.261719 29.964844 61.269531 30.105469 61.292969 30.207031 C 61.3125 30.308594 61.359375 30.4375 61.425781 30.597656 L 60.171875 30.597656 C 60.121094 30.5 60.089844 30.425781 60.074219 30.375 C 60.058594 30.324219 60.042969 30.242188 60.027344 30.132813 C 59.851563 30.316406 59.679688 30.449219 59.503906 30.527344 C 59.269531 30.632813 58.992188 30.683594 58.679688 30.683594 C 58.261719 30.683594 57.945313 30.578125 57.730469 30.367188 C 57.515625 30.15625 57.40625 29.898438 57.40625 29.589844 C 57.40625 29.300781 57.484375 29.058594 57.640625 28.875 C 57.796875 28.6875 58.082031 28.546875 58.503906 28.457031 C 59.003906 28.347656 59.328125 28.269531 59.480469 28.222656 C 59.628906 28.179688 59.785156 28.121094 59.953125 28.050781 C 59.953125 27.871094 59.917969 27.746094 59.851563 27.675781 C 59.78125 27.601563 59.664063 27.566406 59.492188 27.566406 C 59.273438 27.566406 59.109375 27.605469 59 27.679688 C 58.914063 27.742188 58.847656 27.855469 58.792969 28.023438 Z M 59.953125 28.785156 C 59.769531 28.855469 59.578125 28.917969 59.375 28.976563 C 59.105469 29.054688 58.929688 29.132813 58.859375 29.210938 C 58.785156 29.289063 58.746094 29.382813 58.746094 29.480469 C 58.746094 29.597656 58.785156 29.695313 58.855469 29.765625 C 58.929688 29.839844 59.039063 29.878906 59.179688 29.878906 C 59.332031 29.878906 59.46875 29.835938 59.597656 29.757813 C 59.726563 29.679688 59.820313 29.582031 59.871094 29.46875 C 59.925781 29.351563 59.953125 29.203125 59.953125 29.019531 Z M 63.289063 28.023438 L 62.007813 27.875 C 62.054688 27.628906 62.125 27.4375 62.21875 27.296875 C 62.308594 27.15625 62.4375 27.039063 62.609375 26.933594 C 62.734375 26.859375 62.902344 26.800781 63.117188 26.761719 C 63.332031 26.722656 63.5625 26.703125 63.8125 26.703125 C 64.214844 26.703125 64.535156 26.726563 64.777344 26.773438 C 65.023438 26.824219 65.222656 26.925781 65.386719 27.082031 C 65.5 27.1875 65.589844 27.34375 65.65625 27.539063 C 65.722656 27.734375 65.753906 27.921875 65.753906 28.101563 L 65.753906 29.785156 C 65.753906 29.964844 65.765625 30.105469 65.785156 30.207031 C 65.804688 30.308594 65.851563 30.4375 65.921875 30.597656 L 64.667969 30.597656 C 64.617188 30.5 64.585938 30.425781 64.570313 30.375 C 64.554688 30.324219 64.539063 30.242188 64.523438 30.132813 C 64.347656 30.316406 64.171875 30.449219 64 30.527344 C 63.761719 30.632813 63.488281 30.683594 63.175781 30.683594 C 62.757813 30.683594 62.441406 30.578125 62.226563 30.367188 C 62.007813 30.15625 61.902344 29.898438 61.902344 29.589844 C 61.902344 29.300781 61.976563 29.058594 62.132813 28.875 C 62.289063 28.6875 62.578125 28.546875 62.996094 28.457031 C 63.5 28.347656 63.824219 28.269531 63.972656 28.222656 C 64.121094 28.179688 64.28125 28.121094 64.449219 28.050781 C 64.449219 27.871094 64.414063 27.746094 64.34375 27.675781 C 64.277344 27.601563 64.160156 27.566406 63.988281 27.566406 C 63.769531 27.566406 63.605469 27.605469 63.496094 27.679688 C 63.410156 27.742188 63.339844 27.855469 63.289063 28.023438 Z M 64.449219 28.785156 C 64.265625 28.855469 64.070313 28.917969 63.871094 28.976563 C 63.597656 29.054688 63.425781 29.132813 63.355469 29.210938 C 63.277344 29.289063 63.242188 29.382813 63.242188 29.480469 C 63.242188 29.597656 63.277344 29.695313 63.351563 29.765625 C 63.425781 29.839844 63.535156 29.878906 63.675781 29.878906 C 63.824219 29.878906 63.964844 29.835938 64.09375 29.757813 C 64.222656 29.679688 64.3125 29.582031 64.367188 29.46875 C 64.421875 29.351563 64.449219 29.203125 64.449219 29.019531 Z M 66.570313 26.789063 L 67.824219 26.789063 L 67.824219 27.410156 C 67.949219 27.140625 68.070313 26.953125 68.199219 26.851563 C 68.328125 26.75 68.488281 26.703125 68.675781 26.703125 C 68.875 26.703125 69.089844 26.769531 69.328125 26.902344 L 68.910156 27.9375 C 68.753906 27.867188 68.625 27.832031 68.535156 27.832031 C 68.359375 27.832031 68.222656 27.910156 68.125 28.066406 C 67.988281 28.289063 67.917969 28.707031 67.917969 29.316406 L 67.917969 30.597656 L 66.570313 30.597656 L 66.570313 26.789063 "/>
</g>
</svg>
