<?xml version="1.0" encoding="utf-8"?>
<!-- Generator: Adobe Illustrator 19.2.1, SVG Export Plug-In . SVG Version: 6.00 Build 0)  -->
<svg version="1.1" id="layer" xmlns="http://www.w3.org/2000/svg" xmlns:xlink="http://www.w3.org/1999/xlink" x="0px" y="0px"
	 viewBox="0 0 652 652" style="enable-background:new 0 0 652 652;" xml:space="preserve">
<style type="text/css">
	.st0{fill:#00833E;}
</style>
<g>
	<path class="st0" d="M620.9,370.2c-11.5-43.9-29.8-85.4-54.9-123.4c-4.6-6.9-12.2-11.9-22.3-11.9c-10.1,0-18,5.4-22.1,11.6
		c-24.9,38-43.4,79.3-55,123.1c-4.5,16.9,6.6,33.5,24.1,34.6c17.6,1.2,35.4,1.7,53,1.7c17.5,0,35.2-0.5,52.7-1.7
		C613.2,403.3,625.3,387.2,620.9,370.2 M579.9,365.8c-22.6,1.7-52.3,1.7-72.8,0c5.4-23.3,25.6-68.2,36.6-77.8
		C554.1,296.9,574.2,342.2,579.9,365.8"/>
	<path class="st0" d="M295.9,323.3c-9.9-7.2-22.1-14.2-33.9-19.3c-9.6-4.2-29.3-11.7-29.3-28.4c0,0,12.4-1.1,27.7-1.1
		c12.1,0,20.6,0.4,32.8,1c0.3,0,0.7,0,1,0c10,0,18.3-7.9,18.8-18c0.5-10.4-7.5-19.3-17.9-19.8c-12.6-0.6-21.8-1-34.6-1.1
		c0,0,0,0,0,0c0,0,0,0,0,0c-9.2,0-18.4,0.3-24.8,0.9c-0.2,0-0.4,0-0.7,0.1c-35.8,4.4-43.4,27.2-43.4,45.6c0,14.9,7.3,27.7,21.6,38
		c9.9,7.2,22.1,12.4,33.9,17.5c9.5,4.1,29.7,12.3,29.7,28.1c0,0-8.9,1.4-29.8,1.4c-11.4,0-21.8-0.4-34.6-1
		c-10.4-0.5-19.3,7.5-19.8,17.9c-0.5,10.4,7.5,19.3,17.9,19.8c13.5,0.7,24.4,1,36.4,1.1h0.1c7.2,0,18.2-0.2,25.7-0.9
		c0.2,0,0.4,0,0.7-0.1c13.5-1.6,23.6-5.7,31.1-12.5c8.7-8,13.2-17.4,13.2-31.3C317.5,346.5,310.2,333.7,295.9,323.3"/>
	<path class="st0" d="M182.1,383.4c-6.6-28-16.4-57-26.8-79.9h0c-8.8-19.7-19.3-38.7-31.3-56.9c-4.5-6.8-12-11.7-21.9-11.7
		c-9.9,0-17.7,5.3-21.7,11.4c-12,18.3-22.5,37.4-31.3,57.2h0c-0.9,1.9-1.7,3.9-2.6,5.9c0,0,0,0,0,0.1c-9.4,21.9-18.2,48.3-24.2,73.9
		c-2.4,10.3,3.9,20.5,14.1,23c1.5,0.4,2.9,0.5,4.4,0.5c8.6,0,16.4-5.9,18.5-14.7c1.3-5.4,3.5-13.4,6.3-22.7
		c12.2,0.6,24.4,0.9,36.6,0.9s24.4-0.3,36.6-0.9c2.8,9.3,5,17.3,6.3,22.7c2.1,8.8,9.9,14.7,18.5,14.7c1.4,0,2.9-0.2,4.4-0.5
		C178.2,403.9,184.5,393.6,182.1,383.4 M77,335.8c7.7-20.6,16.8-40.3,25.2-48.8c8.5,8.5,17.5,28.2,25.2,48.8
		C110.7,336.4,93.8,336.4,77,335.8"/>
	<polyline class="st0" points="593.5,237.8 593.5,254.4 589.4,254.4 589.4,237.8 584.2,237.8 584.2,235 598.7,235 598.7,237.8 	"/>
	<polyline class="st0" points="617.9,254.4 617.9,237.8 613,254.4 608.7,254.4 603.8,237.8 603.8,254.4 600.6,254.4 600.6,235 
		606.7,235 611.3,250.3 615.8,235 621.7,235 621.7,254.4 	"/>
	<path class="st0" d="M449.8,357.7L449.8,357.7c4.6-9.7,0.2-21.2-9.5-25.6c-9.7-4.4-21.1-0.2-25.6,9.5c-1.9,4.1-4.2,9.7-9.5,16.8
		c-13.9-14.7-33-58.2-38.8-81.5c7.4-1.1,22.2-1.4,31.4-1.4h3.4c13.9,0,28,0.4,41.8,1.1h1.1c10.2,0,18.7-8.2,19.2-18.4
		c0.5-10.8-7.8-19.8-18.4-20.3c-14.1-0.7-28.2-1.1-42.5-1.1H401h-3.2c-15.9,0-31.9,0.5-47.8,1.6c-16.8,1.1-28.7,17-24.3,33.9
		c11.4,43.7,29.6,85,54.6,122.7c4.4,6.7,11.7,11.5,21.2,11.9h0.7h0.4h0.9h0.2c0.5,0,1.1-0.2,1.6-0.2h0.2c3-0.5,5.8-1.4,8.3-2.6
		c0.9-0.4,2-1.1,2.8-1.6c3.2-1.9,5.6-4.4,7.8-6.9c0.2-0.4,0.5-0.7,0.9-1.1C427.8,391.5,441.7,374.8,449.8,357.7"/>
</g>
</svg>
