<?xml version="1.0" encoding="UTF-8"?>
<svg xmlns="http://www.w3.org/2000/svg" xmlns:xlink="http://www.w3.org/1999/xlink" width="612pt" height="792pt" viewBox="0 0 612 792" version="1.1">
<g id="surface1">
<path style=" stroke:none;fill-rule:nonzero;fill:rgb(100%,100%,100%);fill-opacity:1;" d="M 500 792 L 0 792 L 0 292 L 500 292 L 500 792 "/>
<path style=" stroke:none;fill-rule:nonzero;fill:rgb(0%,34.521484%,94.921875%);fill-opacity:1;" d="M 69 545.5 C 70.625 568.058594 116.75 549.335938 115 533.585938 C 114.894531 530.386719 109.546875 521.035156 91.703125 521.714844 C 73.863281 522.394531 68 540 69 545.5 "/>
<path style=" stroke:none;fill-rule:nonzero;fill:rgb(0%,34.521484%,94.921875%);fill-opacity:1;" d="M 154.0625 517.554688 C 146.308594 501.261719 115.75 499.609375 85.8125 513.863281 C 85.515625 514.003906 85.230469 514.152344 84.941406 514.292969 L 88.332031 515.335938 C 88.332031 515.335938 111.414063 512.9375 122 526.667969 C 122 526.667969 126.335938 515.664063 120.335938 506 C 120.335938 506 138.667969 509.316406 138.667969 523.335938 C 138.667969 533.460938 132.960938 538.835938 132.960938 538.835938 C 132.960938 538.835938 134.867188 540.773438 137.375 545.5 C 139.65625 549.800781 140.234375 554.125 140.320313 554.875 C 153.261719 542.332031 159.109375 528.148438 154.0625 517.554688 "/>
<path style=" stroke:none;fill-rule:nonzero;fill:rgb(0%,34.521484%,94.921875%);fill-opacity:1;" d="M 80 565 C 55.332031 563.667969 55.332031 549.667969 55.332031 549.667969 C 55.332031 549.667969 51.667969 540.765625 74.332031 521.714844 L 73.738281 520.582031 C 51.261719 535.042969 39.003906 555.21875 45.652344 569.175781 C 53.410156 585.46875 83.96875 587.121094 113.90625 572.863281 C 116.132813 571.804688 118.285156 570.679688 120.371094 569.511719 C 122.003906 563.179688 122.289063 562.320313 122.5625 557.875 C 122.949219 551.558594 121.667969 548 121.667969 548 C 121.667969 548 104.664063 566.332031 80 565 "/>
<path style=" stroke:none;fill-rule:nonzero;fill:rgb(0%,34.521484%,94.921875%);fill-opacity:1;" d="M 208.25 566 L 204.59375 558.78125 L 176.375 558.78125 L 172.71875 566 L 157.875 566 L 180.5 523.34375 L 200.6875 523.34375 L 223 566 Z M 200.03125 549.4375 L 191.8125 533.28125 L 189.21875 533.28125 L 181 549.4375 L 200.03125 549.4375 "/>
<path style=" stroke:none;fill-rule:nonzero;fill:rgb(0%,34.521484%,94.921875%);fill-opacity:1;" d="M 216.21875 523.34375 L 267.84375 523.34375 L 267.84375 534.21875 L 248.875 534.21875 L 248.875 566 L 235.21875 566 L 235.21875 534.21875 L 216.21875 534.21875 L 216.21875 523.34375 "/>
<path style=" stroke:none;fill-rule:nonzero;fill:rgb(0%,34.521484%,94.921875%);fill-opacity:1;" d="M 311.34375 566 L 307.6875 558.78125 L 279.46875 558.78125 L 275.8125 566 L 260.96875 566 L 283.59375 523.34375 L 303.78125 523.34375 L 326.09375 566 Z M 303.125 549.4375 L 294.90625 533.28125 L 292.3125 533.28125 L 284.09375 549.4375 L 303.125 549.4375 "/>
<path style=" stroke:none;fill-rule:nonzero;fill:rgb(0%,34.521484%,94.921875%);fill-opacity:1;" d="M 353.28125 541.8125 L 383 541.8125 C 383.039063 542.75 383.0625 543.355469 383.0625 543.625 C 383.0625 549.210938 382.90625 553.519531 382.59375 556.5625 C 382.09375 561.480469 379.300781 564.460938 374.21875 565.5 C 371.59375 566.019531 368.71875 566.332031 365.59375 566.4375 C 362.28125 566.5625 358.355469 566.625 353.8125 566.625 C 345.75 566.625 339.988281 566.332031 336.53125 565.75 C 331.738281 564.960938 328.769531 562.75 327.625 559.125 C 327.0625 557.355469 326.738281 555.324219 326.65625 553.03125 C 326.550781 550.15625 326.5 547.09375 326.5 543.84375 C 326.5 538.34375 326.761719 534.480469 327.28125 532.25 C 328.03125 529.144531 329.320313 526.960938 331.15625 525.6875 C 332.113281 525 333.316406 524.472656 334.765625 524.109375 C 336.214844 523.746094 338.261719 523.449219 340.90625 523.21875 C 344.636719 522.886719 349.675781 522.71875 356.03125 522.71875 C 364.195313 522.71875 369.980469 523.042969 373.375 523.6875 C 376.8125 524.335938 379.230469 525.480469 380.625 527.125 C 381.855469 528.605469 382.605469 530.9375 382.875 534.125 C 382.9375 534.980469 382.96875 536.292969 382.96875 538.0625 L 369.96875 538.0625 C 369.945313 536.894531 369.886719 536.105469 369.78125 535.6875 C 369.488281 534.625 368.5625 533.988281 367 533.78125 C 364.9375 533.511719 360.875 533.375 354.8125 533.375 C 349.414063 533.375 345.675781 533.550781 343.59375 533.90625 C 341.613281 534.261719 340.414063 535.34375 340 537.15625 C 339.664063 538.53125 339.5 540.980469 339.5 544.5 C 339.5 548.542969 339.675781 551.304688 340.03125 552.78125 C 340.488281 554.761719 341.90625 555.863281 344.28125 556.09375 C 345.445313 556.199219 348.96875 556.292969 354.84375 556.375 C 361.261719 556.335938 365.394531 556.210938 367.25 556 C 368.9375 555.730469 369.90625 554.988281 370.15625 553.78125 C 370.300781 553.03125 370.375 551.886719 370.375 550.34375 L 353.28125 550.34375 L 353.28125 541.8125 "/>
<path style=" stroke:none;fill-rule:nonzero;fill:rgb(0%,34.521484%,94.921875%);fill-opacity:1;" d="M 417 522.71875 C 425.957031 522.71875 432.164063 522.949219 435.625 523.40625 C 440.605469 524.074219 443.65625 526.4375 444.78125 530.5 C 445.550781 533.292969 445.9375 538.019531 445.9375 544.6875 C 445.9375 551.335938 445.550781 556.054688 444.78125 558.84375 C 443.65625 562.90625 440.605469 565.269531 435.625 565.9375 C 432.1875 566.394531 425.855469 566.625 416.625 566.625 C 407.414063 566.625 401.082031 566.394531 397.625 565.9375 C 392.644531 565.269531 389.59375 562.90625 388.46875 558.84375 C 387.695313 556.054688 387.3125 551.335938 387.3125 544.6875 C 387.3125 538 387.695313 533.269531 388.46875 530.5 C 389.59375 526.4375 392.644531 524.074219 397.625 523.40625 C 401.105469 522.949219 407.5625 522.71875 417 522.71875 Z M 416.125 533.8125 C 409.605469 533.8125 405.644531 533.988281 404.25 534.34375 C 402.5625 534.78125 401.480469 535.769531 401 537.3125 C 400.539063 538.835938 400.3125 541.636719 400.3125 545.71875 C 400.3125 548.363281 400.445313 550.269531 400.71875 551.4375 C 401.238281 553.605469 402.8125 554.84375 405.4375 555.15625 C 407.375 555.40625 411.105469 555.53125 416.625 555.53125 C 422.144531 555.53125 425.875 555.40625 427.8125 555.15625 C 430.4375 554.84375 432 553.605469 432.5 551.4375 C 432.789063 550.25 432.9375 548.40625 432.9375 545.90625 C 432.9375 542.84375 432.855469 540.667969 432.6875 539.375 C 432.394531 537.230469 431.730469 535.800781 430.6875 535.09375 C 429.75 534.425781 427.78125 534.019531 424.78125 533.875 C 423.695313 533.835938 420.8125 533.8125 416.125 533.8125 "/>
<path style=" stroke:none;fill-rule:nonzero;fill:rgb(0%,34.521484%,94.921875%);fill-opacity:1;" d="M 461.894531 519.476563 C 463.9375 519.476563 465.929688 520 467.875 521.046875 C 469.816406 522.09375 471.332031 523.59375 472.417969 525.542969 C 473.503906 527.492188 474.046875 529.523438 474.046875 531.640625 C 474.046875 533.734375 473.511719 535.75 472.441406 537.683594 C 471.375 539.617188 469.875 541.117188 467.945313 542.1875 C 466.019531 543.257813 464.003906 543.789063 461.894531 543.789063 C 459.789063 543.789063 457.773438 543.257813 455.847656 542.1875 C 453.917969 541.117188 452.414063 539.617188 451.34375 537.683594 C 450.269531 535.75 449.730469 533.734375 449.730469 531.640625 C 449.730469 529.523438 450.277344 527.492188 451.367188 525.542969 C 452.457031 523.59375 453.972656 522.09375 455.917969 521.046875 C 457.863281 520 459.855469 519.476563 461.894531 519.476563 Z M 461.894531 521.488281 C 460.1875 521.488281 458.527344 521.925781 456.910156 522.804688 C 455.292969 523.679688 454.027344 524.929688 453.113281 526.558594 C 452.199219 528.183594 451.746094 529.878906 451.746094 531.640625 C 451.746094 533.390625 452.191406 535.070313 453.089844 536.675781 C 453.988281 538.28125 455.242188 539.535156 456.855469 540.429688 C 458.464844 541.328125 460.144531 541.777344 461.894531 541.777344 C 463.648438 541.777344 465.328125 541.328125 466.9375 540.429688 C 468.550781 539.535156 469.804688 538.28125 470.695313 536.675781 C 471.585938 535.070313 472.03125 533.390625 472.03125 531.640625 C 472.03125 529.878906 471.578125 528.183594 470.671875 526.558594 C 469.761719 524.929688 468.496094 523.679688 466.875 522.804688 C 465.253906 521.925781 463.59375 521.488281 461.894531 521.488281 Z M 456.5625 538.359375 L 456.5625 525.277344 L 461.058594 525.277344 C 462.59375 525.277344 463.707031 525.394531 464.394531 525.640625 C 465.082031 525.878906 465.628906 526.300781 466.035156 526.902344 C 466.445313 527.503906 466.648438 528.144531 466.648438 528.820313 C 466.648438 529.777344 466.308594 530.609375 465.628906 531.316406 C 464.945313 532.027344 464.039063 532.425781 462.910156 532.511719 C 463.371094 532.703125 463.742188 532.933594 464.023438 533.203125 C 464.550781 533.71875 465.195313 534.585938 465.957031 535.796875 L 467.554688 538.359375 L 464.976563 538.359375 L 463.8125 536.296875 C 462.898438 534.675781 462.164063 533.660156 461.605469 533.253906 C 461.21875 532.949219 460.65625 532.800781 459.914063 532.800781 L 458.675781 532.800781 L 458.675781 538.359375 Z M 458.675781 530.996094 L 461.234375 530.996094 C 462.460938 530.996094 463.296875 530.8125 463.742188 530.449219 C 464.1875 530.082031 464.410156 529.601563 464.410156 528.996094 C 464.410156 528.609375 464.304688 528.265625 464.089844 527.960938 C 463.871094 527.652344 463.574219 527.425781 463.191406 527.273438 C 462.8125 527.121094 462.105469 527.046875 461.074219 527.046875 L 458.675781 527.046875 L 458.675781 530.996094 "/>
</g>
</svg>
