<?xml version="1.0" encoding="utf-8"?>
<!-- Generator: Adobe Illustrator 19.2.1, SVG Export Plug-In . SVG Version: 6.00 Build 0)  -->
<svg version="1.1" id="layer" xmlns="http://www.w3.org/2000/svg" xmlns:xlink="http://www.w3.org/1999/xlink" x="0px" y="0px"
	 viewBox="0 0 652 652" style="enable-background:new 0 0 652 652;" xml:space="preserve">
<style type="text/css">
	.st0{fill-rule:evenodd;clip-rule:evenodd;}
</style>
<g>
	<path class="st0" d="M376.8,309.9c0-4.3-3.6-7.7-8.9-7.7c-4.3,0-7.1,2.5-8.3,4.8c-4-4.1-8.6-5.7-15.3-5.7
		c-15.5,0-27.5,11.9-27.5,26.8c0,13.4,8.6,25.9,25.8,25.9c5.9,0,12.3-1.2,16.2-5.7h0.2c0,8.3-3.8,13.1-14.8,13.1
		c-10.4,0-13.7-4.4-18.8-4.4c-3.5,0-7.4,3.1-7.4,6.5c0,8.1,17.3,11,26.6,11c17.5,0,32.3-7.1,32.3-26.1V309.9z M359,328.1
		c0,7.2-4.3,12.7-12.2,12.7c-7.9,0-12.2-5.5-12.2-12.7c0-6.8,4.3-12.5,12.2-12.5C354.7,315.6,359,321.3,359,328.1"/>
	<path class="st0" d="M459.1,333c5.7,0,8.7-1.2,8.7-6.5c0-12.9-11.3-25.2-28.9-25.2c-18.3,0-31.1,12.6-31.1,26.8
		c0,14.9,12,26.8,31.1,26.8c13.5,0,28-4.8,28-12c0-3.8-3.4-6.4-7.4-6.4c-4.1,0-9.5,4.6-18.3,4.6c-11.4,0-14.3-5.1-14.3-8.3H459.1z
		 M426.8,322.8c0-3.3,4.6-8.9,11.5-8.9c7,0,11.5,5.6,11.5,8.9H426.8z"/>
	<path class="st0" d="M594.7,309.9c0-4.3-3.6-7.7-8.9-7.7c-4.3,0-7.1,2.5-8.3,4.8c-4-4.1-8.6-5.7-15.3-5.7
		c-15.5,0-27.5,11.9-27.5,26.8c0,14.9,12,26.8,27.5,26.8c6.7,0,11.3-1.6,15.3-5.7c1.2,2.3,4,4.8,8.3,4.8c5.3,0,8.9-3.4,8.9-7.7
		V309.9z M564.7,315.6c7.9,0,12.2,5.7,12.2,12.5c0,6.9-4.3,12.5-12.2,12.5c-7.9,0-12.2-5.7-12.2-12.5
		C552.4,321.3,556.8,315.6,564.7,315.6"/>
	<path d="M198.6,346.3c0,4.3,3.6,7.7,8.9,7.7c5.3,0,8.9-3.4,8.9-7.7v-23.5c0-5.1,3.7-8.9,9.8-8.9c6.2,0,9.8,3.8,9.8,8.9v23.5
		c0,4.3,3.7,7.7,8.9,7.7c5.3,0,8.9-3.4,8.9-7.7v-27.5c0-12.2-9.8-17.5-22.1-17.5c-6.8,0-11.4,1.8-15.1,3.7h-0.2v-17.1
		c0-4.3-3.6-7.7-8.9-7.7c-5.3,0-8.9,3.4-8.9,7.7V346.3z"/>
	<path d="M271,359.7c-2,3.9-3,5.6-3,8.2c0,2.5,2.4,6.7,8.8,6.7c6.2,0,7.6-3.1,9.7-7l26.4-51.3c0.9-1.7,2.2-4.3,2.2-6.5
		c0-4.6-3.6-7.5-9.1-7.5c-4.9,0-7.4,3.5-9.7,8.1l-9.9,20.2l-10.5-22.6c-1.7-3.7-4.8-5.6-9.1-5.6c-4.5,0-8.7,2.6-8.7,6.9
		c0,1.7,1.7,5.2,3.8,9.2l15.2,30.2L271,359.7z"/>
	<path class="st0" d="M384.4,346.3c0,4.3,3.6,7.7,8.9,7.7c5.3,0,8.9-3.4,8.9-7.7v-36.3c0-4.3-3.7-7.7-8.9-7.7
		c-5.3,0-8.9,3.4-8.9,7.7V346.3z M382.7,289c0,4.9,4.8,8.9,10.6,8.9s10.6-3.9,10.6-8.9c0-4.9-4.8-8.8-10.6-8.8
		S382.7,284.1,382.7,289"/>
	<path d="M473.6,346.3c0,4.3,3.7,7.7,8.9,7.7c5.2,0,8.9-3.4,8.9-7.7v-23.5c0-5.1,3.7-8.9,9.8-8.9c6.2,0,9.8,3.8,9.8,8.9v23.5
		c0,4.3,3.6,7.7,8.9,7.7c5.2,0,8.9-3.4,8.9-7.7v-27.5c0-12.2-9.8-17.5-22.2-17.5c-7.6,0-12.4,2-15.3,5.7c-1.1-2.2-4.1-4.8-8.9-4.8
		c-5.3,0-8.9,3.4-8.9,7.7V346.3z"/>
	<path d="M604.8,299.4v2h-3.8v10.3h-2.4v-10.3h-3.8v-2H604.8z M617.7,311.8l-0.4-7.3c0-1,0-2.1-0.1-3.5H617c-0.3,1.1-0.7,2.5-1,3.7
		l-2.1,6.9h-2.5l-2.2-7.1c-0.2-1-0.6-2.4-0.8-3.5h-0.1c0,1.1,0,2.3-0.1,3.5l-0.4,7.3h-2.3l0.9-12.4h3.6l2.1,6c0.3,1,0.5,1.9,0.8,3.1
		h0c0.3-1.1,0.6-2.2,0.8-3.1l2.1-6.1h3.4l0.9,12.4H617.7z"/>
	<path d="M163.8,274.2l0,0.1v35.8c0,6.5-5.8,11.7-13.1,11.7h-1.1c-6.6,0-10.2,1.6-10.7,10.1c0.1,0.5,0.1,1.1,0.1,1.6v35.9
		c0,6.5-5.8,11.7-13.1,11.7h-3.6c-7.2,0-13.1-5.2-13.1-11.7v-35.9c0-6.5,5.9-11.7,13.1-11.7h2.6c7,0,10.6-1.8,10.7-11.7v-0.4v-35.4
		c0-6.5,5.8-11.7,13.1-11.7h1.9c1.1,0,2.2,0.1,3.2,0.4c-14.2-13.4-33.4-21.6-54.4-21.6C55.6,241.4,20,277,20,320.8
		c0,18.5,6.3,35.5,16.9,49l0-0.4v-35.9c0-6.5,5.8-11.7,13.1-11.7h2.6c6.9,0,10.6-1.8,10.7-11.7l0-0.4l0-35.4
		c0-6.5,5.9-11.7,13.1-11.7h1.9c7.2,0,13.1,5.2,13.1,11.7v35.8c0,6.5-5.9,11.7-13.1,11.7h-1.1c-6.6,0-10.2,1.6-10.7,10.1
		c0.1,0.5,0.1,1.1,0.1,1.6v35.9c0,6.5-5.8,11.7-13,11.7H50c-0.8,0-1.7-0.1-2.5-0.2c13.9,12.1,32.1,19.4,52,19.4
		c43.9,0,79.4-35.6,79.4-79.4C178.9,303.4,173.3,287.3,163.8,274.2 M102.6,333.6v1.1c0,6.5-5.8,11.7-13.1,11.7H86
		c-7.2,0-13-5.2-13-11.7v-1.1c0-6.5,5.8-11.7,13-11.7h2.6c6.9,0,10.6-1.8,10.7-11.7v-0.4v-0.6c0-6.5,5.8-11.7,13.1-11.7h1.9
		c7.2,0,13.1,5.2,13.1,11.7v1c0,6.5-5.8,11.7-13.1,11.7h-1.1c-6.6,0-10.2,1.6-10.7,10.1C102.6,332.5,102.6,333,102.6,333.6"/>
</g>
</svg>
