<?xml version="1.0" encoding="utf-8"?>
<!-- Generator: Adobe Illustrator 19.0.0, SVG Export Plug-In . SVG Version: 6.00 Build 0)  -->
<svg version="1.1" id="layer" xmlns="http://www.w3.org/2000/svg" xmlns:xlink="http://www.w3.org/1999/xlink" x="0px" y="0px"
	 viewBox="-153 -46 652 652" style="enable-background:new -153 -46 652 652;" xml:space="preserve">
<style type="text/css">
	.st0{fill:#26608E;}
	.st1{fill:#F78C2A;}
</style>
<polygon class="st0" points="-49,313.4 -65.4,313.4 -65.4,267.4 -89.8,303.5 -114.7,267.4 -114.7,313.4 -131.1,313.4 -131.1,236 
	-117.9,236 -90,276.4 -62.2,236 -49,236 "/>
<polygon class="st0" points="50.3,313.3 -24.9,313.3 -24.9,236 47.2,236 47.2,251.8 -8.5,251.8 -8.5,264.6 28,264.6 28,280.2 
	-8.5,280.2 -8.5,297.7 50.3,297.7 "/>
<path class="st0" d="M150.8,313.4h-18.4l-20.4-31.6H85.1v31.6H68.7v-77.2h51.7c7.6,0,13.7,1.9,18.3,5.6c5,4.1,7.6,9.8,7.6,17.2
	c0.1,4.9-1.5,9.6-4.3,13.5c-2.9,4-7,6.9-11.7,8.5L150.8,313.4z M129.7,258.9c0.1-1.9-0.7-3.8-2.1-5.1c-1.6-1.1-4-1.7-7.3-1.7H85.1
	v14.2h35.3c3.4,0,5.8-0.6,7.2-1.9C128.9,262.8,129.6,260.9,129.7,258.9"/>
<polygon class="st0" points="247.3,313.4 228,313.4 199.4,274.9 187.7,284.9 187.7,313.4 171.3,313.4 171.3,236.2 187.7,236.2 
	187.7,265.1 221.9,236.2 244.9,236.2 211.2,264.7 "/>
<polygon class="st0" points="335.1,313.3 265.6,313.3 265.6,236 282,236 282,297.7 335.1,297.7 "/>
<polygon class="st0" points="425.2,313.3 350,313.3 350,236 422,236 422,251.8 366.4,251.8 366.4,264.6 402.9,264.6 402.9,280.2 
	366.4,280.2 366.4,297.7 425.2,297.7 "/>
<polygon class="st1" points="433.6,313.4 468.9,278.7 468.9,313.4 "/>
</svg>
