<?xml version="1.0" encoding="utf-8"?>
<!-- Generator: Adobe Illustrator 19.2.1, SVG Export Plug-In . SVG Version: 6.00 Build 0)  -->
<svg version="1.1" id="layer" xmlns="http://www.w3.org/2000/svg" xmlns:xlink="http://www.w3.org/1999/xlink" x="0px" y="0px"
	 viewBox="0 0 652 652" style="enable-background:new 0 0 652 652;" xml:space="preserve">
<style type="text/css">
	.st0{fill:#EB5D02;}
</style>
<g>
	<path class="st0" d="M539.8,274.3l-51.9,127.8h8.9l51.9-127.8H539.8z M490.6,358.2l-17.8,43.9h8.9l51.8-127.8h-8.9l-22.2,54.7
		l-20.6-54.7h-22.7L490.6,358.2z M338.9,242.5v96.2c0,20.5,14.8,27.1,28.5,27.1H385v-16.6h-12.5c-8.9,0-13-3.6-13-14.1v-44.8h23.5
		v-15.8h-23.5v-31.9H338.9z M307.7,274.3v74.7h-9.3c-11.4,0-15.9-3-15.9-13.3v-61.4h-20.3v64.5c0,19.5,16.1,26.9,35,26.9h31.3v-91.4
		H307.7z M210.2,242.5v96.2c0,20.5,14.8,27.1,28.5,27.1h17.6v-16.6h-12.5c-8.9,0-13-3.6-13-14.1v-44.8h23.5v-15.8h-23.5v-31.9H210.2
		z M176.6,262.9h21.3v-20.5h-21.3V262.9z M165.2,365.7V242.5h-17.9L92.8,365.7h10.6l31.6-71.6v71.6H165.2z M20.2,242.5v123.3h30.2
		l0-71.9l30.9,71.9h3.9l54.5-123.3H129l-36.5,82.4l-35.3-82.4H20.2z M176.6,365.7h21.3v-91.4h-21.3V365.7z M616.3,291.8
		c2.7,7.2,3.8,17.1,3.8,28.3c0,11.1-1.2,21-4,28.1c-2.7,7-7.4,20-33,20c-25.5,0-30.1-13-32.9-20c-2.8-7.1-3.8-17-3.8-28.1
		c0-11.3,1.1-21.2,4-28.2c2.8-7.1,7.2-20.2,32.9-20.2C608.8,271.8,613.7,284.8,616.3,291.8 M583.3,289.6c-11.5,0-13.4,5.8-14.7,9
		c-1.3,3.1-1.8,16.5-1.8,21.5c0,5,0.4,18.3,1.7,21.4c1.3,3.1,3.3,8.9,14.7,8.9c11.4,0,13.5-5.8,14.7-8.9c1.2-3.1,1.8-16.5,1.8-21.4
		c0-5-0.5-18.3-1.7-21.5C596.8,295.5,594.6,289.6,583.3,289.6 M457.6,291.8c2.7,7.2,3.8,17.1,3.8,28.3c0,11.1-1.2,21-4,28.1
		c-2.7,7-7.4,20-33,20c-25.5,0-30.1-13-32.9-20c-2.8-7.1-3.8-17-3.8-28.1c0-11.3,1.1-21.2,4-28.2c2.8-7.1,7.2-20.2,32.9-20.2
		C450,271.8,454.9,284.8,457.6,291.8 M424.5,289.6c-11.5,0-13.4,5.8-14.7,9c-1.3,3.1-1.8,16.5-1.8,21.5c0,5,0.4,18.3,1.7,21.4
		c1.3,3.1,3.3,8.9,14.7,8.9c11.4,0,13.5-5.8,14.7-8.9c1.2-3.1,1.8-16.5,1.8-21.4c0-5-0.5-18.3-1.7-21.5
		C438.1,295.5,435.9,289.6,424.5,289.6"/>
</g>
</svg>
