<?xml version="1.0" encoding="UTF-8"?>
<svg xmlns="http://www.w3.org/2000/svg" xmlns:xlink="http://www.w3.org/1999/xlink" width="750.78pt" height="198.46pt" viewBox="0 0 750.78 198.46" version="1.1">
<defs>
<clipPath id="clip1">
  <path d="M 582 20 L 750.78125 20 L 750.78125 159 L 582 159 Z M 582 20 "/>
</clipPath>
<clipPath id="clip2">
  <path d="M 330 70 L 431 70 L 431 198.460938 L 330 198.460938 Z M 330 70 "/>
</clipPath>
</defs>
<g id="surface1">
<path style=" stroke:none;fill-rule:evenodd;fill:rgb(0%,27.830505%,58.006287%);fill-opacity:1;" d="M 63.71875 41.351563 C 61.527344 30.496094 73.59375 33.894531 74.71875 26.351563 C 60.386719 7.820313 21.191406 16.777344 20.71875 38.351563 C 20.285156 58.113281 52.9375 62.691406 71.71875 67.351563 C 90.933594 72.125 115.480469 79.667969 126.71875 91.351563 C 132.285156 97.140625 139.902344 108.941406 139.71875 123.351563 C 138.992188 180.417969 21.269531 183.363281 3.71875 139.351563 C -3.898438 120.25 8.367188 100.148438 24.71875 96.351563 C 32.554688 94.535156 46.839844 96.046875 43.71875 105.351563 C 41.226563 112.78125 31.707031 109 25.71875 113.351563 C 23.078125 115.273438 19.988281 119.039063 19.71875 124.351563 C 17.925781 159.597656 108.65625 160.832031 115.71875 130.351563 C 117.804688 121.34375 114.652344 111.425781 108.71875 104.351563 C 97.238281 90.667969 62.152344 84.699219 39.71875 77.351563 C 22.949219 71.863281 3.941406 65.984375 0.71875 48.351563 C -5.3125 15.382813 27.742188 -2.820313 58.71875 0.351563 C 74.042969 1.925781 99.945313 11.695313 93.71875 33.351563 C 90.945313 42.996094 76.5625 50.777344 63.71875 41.351563 "/>
<g clip-path="url(#clip1)" clip-rule="nonzero">
<path style=" stroke:none;fill-rule:evenodd;fill:rgb(0%,27.830505%,58.006287%);fill-opacity:1;" d="M 644.71875 102.351563 C 653.285156 99.71875 654.574219 86.496094 661.71875 79.351563 C 667.207031 73.863281 680.558594 65.992188 689.71875 76.351563 C 685.070313 90.589844 664.03125 88.5625 666.71875 108.351563 C 668.941406 124.734375 703.820313 140.125 723.71875 142.351563 C 733.609375 143.460938 743.457031 140.140625 750.71875 144.351563 C 751.835938 159.027344 737.09375 159.445313 722.71875 158.351563 C 710.816406 157.449219 701.054688 153.566406 691.71875 148.351563 C 682.160156 143.015625 674.210938 136.210938 665.71875 133.351563 C 661.085938 143.171875 671.28125 146.320313 670.71875 155.351563 C 657.179688 165.5 647.703125 145.296875 641.71875 135.351563 C 627.316406 111.421875 615.722656 88.148438 600.71875 63.351563 C 598.109375 59.042969 593.8125 53.308594 589.71875 46.351563 C 585.304688 38.859375 576.09375 21.128906 589.71875 20.351563 C 598.328125 19.863281 603.632813 34.765625 608.71875 43.351563 C 619.441406 61.457031 634.367188 86.835938 644.71875 102.351563 "/>
</g>
<path style=" stroke:none;fill-rule:evenodd;fill:rgb(0%,27.830505%,58.006287%);fill-opacity:1;" d="M 539.71875 155.351563 C 526.058594 166.984375 517.917969 142.339844 512.71875 133.351563 C 494.925781 102.621094 478.464844 74.816406 460.71875 43.351563 C 457.3125 37.316406 452.058594 30.664063 454.71875 23.351563 C 463.386719 16.703125 468.648438 25.570313 473.71875 34.351563 C 493.960938 69.425781 511.757813 102.273438 531.71875 137.351563 C 535.035156 143.1875 540.976563 148.035156 539.71875 155.351563 "/>
<path style=" stroke:none;fill-rule:evenodd;fill:rgb(0%,27.830505%,58.006287%);fill-opacity:1;" d="M 189.71875 125.351563 C 194.136719 116.265625 186.371094 104.875 181.71875 97.351563 C 176.960938 89.664063 166.746094 81.351563 174.71875 71.351563 C 183.917969 68.644531 186.53125 76.78125 189.71875 81.351563 C 196.667969 91.324219 202.875 100.847656 209.71875 111.351563 C 212.75 116.011719 215.484375 122.375 221.71875 123.351563 C 228.019531 116.257813 221.566406 104.859375 217.71875 97.351563 C 213.671875 89.457031 206.300781 80.894531 211.71875 71.351563 C 224.800781 68.082031 230.941406 85.316406 235.71875 98.351563 C 242.605469 117.164063 246.527344 143.375 237.71875 158.351563 C 220.371094 160.367188 221.40625 144 209.71875 140.351563 C 204.859375 143.496094 207.980469 154.617188 203.71875 158.351563 C 196.316406 160.632813 189.191406 155.46875 184.71875 151.351563 C 176.511719 143.800781 165.863281 129.773438 156.71875 117.351563 C 152.738281 111.949219 147.613281 105.171875 143.71875 99.351563 C 139.875 93.617188 133.960938 83.472656 134.71875 78.351563 C 135.476563 73.230469 140.476563 68.378906 147.71875 71.351563 C 150.367188 72.441406 155.039063 80.8125 157.71875 85.351563 C 160.933594 90.804688 164.117188 96.269531 166.71875 100.351563 C 173.925781 111.671875 178.972656 122.398438 189.71875 125.351563 "/>
<path style=" stroke:none;fill-rule:evenodd;fill:rgb(0%,27.830505%,58.006287%);fill-opacity:1;" d="M 264.71875 95.351563 C 261.054688 115.609375 284.207031 142.832031 298.71875 141.351563 C 316.25 139.566406 302.410156 118.0625 296.71875 108.351563 C 291.117188 98.800781 285.644531 82.34375 273.71875 85.351563 C 268.019531 86.789063 265.558594 90.703125 264.71875 95.351563 M 299.71875 71.351563 C 301.617188 73.789063 303.441406 76.296875 302.71875 81.351563 C 314.96875 100.46875 323.898438 119.722656 335.71875 140.351563 C 337.589844 143.621094 343.535156 148.675781 341.71875 155.351563 C 338.367188 158.121094 336.035156 159.261719 333.71875 159.351563 C 326.851563 159.625 324.015625 151.855469 318.71875 151.351563 C 312.023438 150.71875 307.574219 157.503906 302.71875 158.351563 C 276.960938 162.859375 240.019531 127.207031 246.71875 89.351563 C 248.371094 80.011719 259.132813 70.929688 269.71875 70.351563 C 274.632813 70.085938 279.753906 73.363281 285.71875 73.351563 C 291.125 73.34375 292.351563 70.238281 299.71875 71.351563 "/>
<g clip-path="url(#clip2)" clip-rule="nonzero">
<path style=" stroke:none;fill-rule:evenodd;fill:rgb(0%,27.830505%,58.006287%);fill-opacity:1;" d="M 379.71875 109.351563 C 376.5 103.707031 369.433594 87.519531 363.71875 85.351563 C 352.253906 81.011719 346.015625 93.191406 347.71875 105.351563 C 349.992188 121.625 372.632813 150.328125 388.71875 138.351563 C 392.050781 124.75 383.988281 116.847656 379.71875 109.351563 M 380.71875 71.351563 C 387.101563 91.316406 398.378906 106.199219 408.71875 128.351563 C 411.855469 135.074219 415.457031 143.65625 419.71875 151.351563 C 426.710938 163.988281 437.503906 180.292969 423.71875 192.351563 C 417.277344 197.988281 381.15625 203.902344 385.71875 189.351563 C 388.867188 179.304688 409.605469 190.714844 413.71875 179.351563 C 413.15625 170.410156 410.382813 153.964844 401.71875 152.351563 C 397.101563 151.496094 392.445313 157.324219 386.71875 158.351563 C 353.71875 164.296875 330.621094 119.367188 330.71875 98.351563 C 330.753906 90.617188 333.351563 81.199219 336.71875 77.351563 C 346.40625 66.277344 364.230469 73.140625 380.71875 71.351563 "/>
</g>
<path style=" stroke:none;fill-rule:evenodd;fill:rgb(0%,27.830505%,58.006287%);fill-opacity:1;" d="M 447.71875 88.351563 C 422.882813 75.007813 422.136719 127.292969 451.71875 116.351563 C 459.824219 108.304688 454.445313 91.972656 447.71875 88.351563 M 451.71875 130.351563 C 454.257813 142.960938 467.390625 143.652344 477.71875 140.351563 C 487.617188 137.195313 486.183594 126.847656 494.71875 127.351563 C 509.699219 128.238281 498.039063 148.03125 495.71875 150.351563 C 487.4375 158.632813 473.398438 159.773438 463.71875 158.351563 C 439.15625 154.753906 416.421875 128.25 411.71875 109.351563 C 406.613281 88.839844 420.234375 71.441406 437.71875 70.351563 C 463.296875 68.761719 480.441406 96.835938 469.71875 117.351563 C 466.203125 124.074219 459.539063 124.679688 451.71875 130.351563 "/>
<path style=" stroke:none;fill-rule:evenodd;fill:rgb(0%,27.830505%,58.006287%);fill-opacity:1;" d="M 560.71875 130.351563 C 565.617188 135.394531 573.5625 142.199219 579.71875 143.351563 C 595.949219 146.398438 605.785156 137.019531 602.71875 120.351563 C 599.796875 104.46875 568.667969 74.714844 551.71875 91.351563 C 552.230469 95.175781 555.003906 96.734375 555.71875 100.351563 C 541.992188 108.207031 554.074219 123.523438 560.71875 130.351563 M 561.71875 71.351563 C 564.273438 71.0625 575.214844 71.363281 580.71875 73.351563 C 595.484375 78.6875 620.753906 104.859375 619.71875 131.351563 C 618.375 165.738281 572.753906 163.175781 551.71875 144.351563 C 545.175781 138.5 530.621094 120.308594 528.71875 105.351563 C 527.355469 94.65625 529.230469 81.433594 537.71875 79.351563 C 538.980469 79.042969 541.679688 80.597656 544.71875 79.351563 C 552.574219 76.140625 551.929688 72.464844 561.71875 71.351563 "/>
<path style=" stroke:none;fill-rule:nonzero;fill:rgb(0%,27.830505%,58.006287%);fill-opacity:1;" d="M 687.816406 105.921875 L 689.003906 105.921875 C 690.390625 105.921875 691.511719 105.460938 691.511719 104.339844 C 691.511719 103.351563 690.785156 102.691406 689.203125 102.691406 C 688.542969 102.691406 688.078125 102.753906 687.816406 102.820313 Z M 687.75 111.992188 L 685.242188 111.992188 L 685.242188 101.238281 C 686.230469 101.039063 687.617188 100.84375 689.398438 100.84375 C 691.445313 100.84375 692.371094 101.171875 693.164063 101.699219 C 693.753906 102.160156 694.21875 103.019531 694.21875 104.007813 C 694.21875 105.261719 693.296875 106.1875 691.972656 106.582031 L 691.972656 106.714844 C 693.03125 107.042969 693.625 107.902344 693.953125 109.355469 C 694.285156 111.003906 694.480469 111.664063 694.746094 111.992188 L 692.039063 111.992188 C 691.710938 111.597656 691.511719 110.671875 691.179688 109.417969 C 690.984375 108.234375 690.324219 107.703125 688.9375 107.703125 L 687.75 107.703125 Z M 689.398438 97.738281 C 684.648438 97.738281 681.085938 101.632813 681.085938 106.386719 C 681.085938 111.203125 684.648438 115.027344 689.53125 115.027344 C 694.285156 115.097656 697.78125 111.203125 697.78125 106.386719 C 697.78125 101.632813 694.285156 97.738281 689.464844 97.738281 Z M 689.53125 95.5625 C 695.734375 95.5625 700.554688 100.378906 700.554688 106.386719 C 700.554688 112.523438 695.734375 117.273438 689.464844 117.273438 C 683.261719 117.273438 678.3125 112.523438 678.3125 106.386719 C 678.3125 100.378906 683.261719 95.5625 689.464844 95.5625 "/>
</g>
</svg>
